<?xml version="1.0" encoding="UTF-8" standalone="yes"?>
<!-- Created with sK1/UniConvertor (http://sk1project.org/) -->
<svg xmlns="http://www.w3.org/2000/svg" xmlns:xlink="http://www.w3.org/1999/xlink"
  width="275pt" height="192pt" viewBox="0 0 275 192"
  fill-rule="evenodd">
<g>
<g>
<path style="stroke:none; fill:#000000" d="M 38 97.5L 38 125L 137 125L 236 125L 236 97.5L 236 70L 137 70L 38 70L 38 97.5zM 186 97.5L 186 124L 113 124L 40 124L 40 97.5L 40 71L 113 71L 186 71L 186 97.5zM 221 80L 231.1 85L 230.8 97.8L 230.5 110.5L 220.6 115.3L 210.8 120.2L 203.5 117C 199.6 115.3 194.9 113 193.2 111.9L 190 110L 190 97.5L 190 85L 199.8 80.1C 205.1 77.3 209.8 75.1 210.3 75.1C 210.7 75 215.5 77.3 221 80z"/>
<path style="stroke:none; fill:#000000" d="M 77 78.5C 74.4 81.7 78.3 86.6 81.8 84.4C 85.2 82.2 84 77 80 77C 79 77 77.7 77.7 77 78.5z"/>
<path style="stroke:none; fill:#000000" d="M 91 98L 91 117L 94.5 117L 98 117L 98 98L 98 79L 94.5 79L 91 79L 91 98z"/>
<path style="stroke:none; fill:#000000" d="M 50.4 82C 44.9 84.2 42.3 92.1 45.5 96.7C 46.3 97.9 50.1 100 54 101.5C 61.1 104.2 63.5 106.5 62.4 109.5C 60.9 113.3 53.1 113.3 51.7 109.6C 51.3 108.6 49.8 108 47.5 108C 43.1 108 42.9 110 46.8 114C 51.8 119 61.5 119.2 66.3 114.5C 69.6 111.1 70.3 107.3 68.2 103C 66.8 100.1 65.5 99.1 60 97.2C 52.2 94.4 50.5 93 51.4 89.7C 52.4 85.6 59.8 85.4 61.3 89.4C 62.1 91.4 69 91.7 69 89.7C 69 83.8 57.6 79.1 50.4 82z"/>
<path style="stroke:none; fill:#000000" d="M 139 99.5L 139 117L 142.5 117L 146 117L 146 99.5L 146 82L 142.5 82L 139 82L 139 99.5z"/>
<path style="stroke:none; fill:#000000" d="M 77 103L 77 117L 80 117L 83 117L 83 103L 83 89L 80 89L 77 89L 77 103z"/>
<path style="stroke:none; fill:#000000" d="M 112.5 90C 104.4 93.3 101.6 105.4 107.1 112.4C 111.7 118.2 119.4 119.6 126.1 115.8C 135.1 110.8 135.5 96.3 126.7 91C 123.4 88.9 116.2 88.4 112.5 90zM 125 98C 125.6 99 126 101.6 126 103.6C 126 108.5 122.8 112 118.4 112C 110 112 108.3 98 116.4 95.1C 119.1 94.1 123.7 95.7 125 98z"/>
<path style="stroke:none; fill:#000000" d="M 154 103L 154 117L 157.5 117L 161 117L 161 107.6C 161 98.6 161.1 98 163.6 96.1C 166.9 93.5 169.4 93.4 172 96C 173.7 97.7 174 99.3 174 107.5L 174 117L 177.5 117L 181 117L 181 107C 181 92.9 178.7 89 170.5 89C 168.5 89 165.6 89.7 164 90.5C 161.3 91.9 161 91.9 161 90.5C 161 89.4 160 89 157.5 89L 154 89L 154 103z"/>
<path style="stroke:none; fill:#000000" d="M 203.5 82.7L 196.5 86.3L 203.6 89.8L 210.6 93.2L 217.5 89.7L 224.4 86.2L 217.5 82.7L 210.5 79.2L 203.5 82.7z"/>
<path style="stroke:none; fill:#000000" d="M 194 99L 194 108L 201 111.5L 208 115L 208 105.7L 208 96.4L 201.5 93.2C 197.9 91.4 194.7 90 194.5 90C 194.2 90 194 94 194 99zM 201.5 98.7C 204.6 100.2 205 100.8 205 104.2C 205 106.3 204.8 108 204.5 108C 204.3 108 202.5 107.2 200.5 106.3C 197.4 104.8 197 104.2 197 100.8C 197 98.7 197.2 97 197.5 97C 197.7 97 199.5 97.8 201.5 98.7z"/>
<path style="stroke:none; fill:#000000" d="M 219.3 93.3L 213 96.4L 213 105.7C 213 114.8 213.1 115 215 114C 216.6 113.2 217 111.9 217 108.1C 217 103.9 217.3 103.2 219.5 102.2C 223.1 100.6 223 100.5 223 105.5C 223 109.8 223.1 110 225 109C 226.8 108.1 227 106.9 227 99C 227 94 226.7 90 226.3 90.1C 225.8 90.1 222.7 91.5 219.3 93.3z"/>
</g>
</g>
</svg>